<svg width="32" height="32" viewBox="0 0 32 32" fill="none" xmlns="http://www.w3.org/2000/svg">
  <!-- Dragon head shape -->
  <path d="M16 2C20.5 2 24 5.5 24 10C24 12 23.5 13.8 22.5 15.3L28 21L26 23L20.3 17.5C18.8 18.5 17 19 15 19H7C5.5 19 4 17.5 4 16V10C4 5.5 7.5 2 12 2H16Z" fill="url(#gradient1)"/>
  
  <!-- Dragon eye -->
  <circle cx="18" cy="10" r="2" fill="#ffffff"/>
  <circle cx="18.5" cy="9.5" r="1" fill="#1a1a2e"/>
  
  <!-- Dragon nostril -->
  <ellipse cx="21" cy="12" rx="1" ry="0.5" fill="#4f46e5"/>
  
  <!-- Horn/spike details -->
  <path d="M14 4L15 2L16 4M18 4L19 2L20 4" stroke="#8b5cf6" stroke-width="1.5" stroke-linecap="round"/>
  
  <!-- Scale pattern -->
  <path d="M8 8C9 7 11 7 12 8M8 12C9 11 11 11 12 12M10 16C11 15 13 15 14 16" stroke="#06b6d4" stroke-width="1" stroke-linecap="round" opacity="0.6"/>
  
  <!-- Terminal/code elements -->
  <rect x="6" y="22" width="20" height="8" rx="2" fill="#0f0f23" stroke="#6366f1" stroke-width="1"/>
  <rect x="8" y="24" width="2" height="1" fill="#10b981"/>
  <rect x="11" y="24" width="6" height="1" fill="#ffffff"/>
  <rect x="8" y="26" width="4" height="1" fill="#f59e0b"/>
  <rect x="13" y="26" width="3" height="1" fill="#8b5cf6"/>
  
  <!-- Gradient definitions -->
  <defs>
    <linearGradient id="gradient1" x1="0%" y1="0%" x2="100%" y2="100%">
      <stop offset="0%" style="stop-color:#6366f1;stop-opacity:1" />
      <stop offset="50%" style="stop-color:#8b5cf6;stop-opacity:1" />
      <stop offset="100%" style="stop-color:#06b6d4;stop-opacity:1" />
    </linearGradient>
  </defs>
</svg>
